<?xml version="1.0" standalone="no"?>
<!DOCTYPE svg PUBLIC "-//W3C//DTD SVG 20010904//EN"
 "http://www.w3.org/TR/2001/REC-SVG-20010904/DTD/svg10.dtd">
<svg version="1.0" xmlns="http://www.w3.org/2000/svg"
 width="512.000000pt" height="512.000000pt" viewBox="0 0 512.000000 512.000000"
 preserveAspectRatio="xMidYMid meet">

<g transform="translate(0.000000,512.000000) scale(0.100000,-0.100000)"
fill="#00000066" stroke="none">
<path d="M3970 4079 c-374 -56 -474 -73 -579 -100 -141 -36 -161 -48 -161 -93
0 -63 19 -66 235 -32 55 8 179 22 275 31 96 8 199 18 229 21 l54 7 -7 -174
c-3 -96 -9 -244 -12 -330 l-7 -155 32 -27 c18 -15 37 -27 42 -27 27 0 49 25
69 77 44 117 51 178 57 452 6 295 1 331 -47 356 -34 17 -21 18 -180 -6z"/>
<path d="M3475 3462 c-75 -41 -218 -139 -394 -270 -86 -63 -248 -178 -361
-253 -563 -378 -1100 -855 -1435 -1274 -154 -192 -365 -521 -365 -568 0 -47
52 -87 88 -68 9 5 249 240 532 523 468 468 820 807 1175 1133 188 173 309 275
490 415 288 222 385 306 385 333 0 20 -35 57 -52 57 -7 0 -36 -13 -63 -28z"/>
</g>
</svg>
